# xmcd
#
# Track frame offsets:
#	150
#	13407
#	27597
#	39272
#	52647
#	65277
#	76688
#	89422
#	102491
#	114529
#	127967
#	141252
#	153840
#	167292
#	183084
#	197253
#	211962
#	224239
#	235574
#	248504
#	263328
#	275421
#	289505
#	301981
#	313872
#	326070
#	337847
#
# Disc length: 4705 seconds
#
# Revision: 0
# Processed by: cddbd v1.5.2PL0 Copyright (c) Steve Scherf et al.
# Submitted via: dBpowerAMP V4.0
#
DISCID=65125f1b
DTITLE=Dalva de Oliveira - Canta Boleros
DYEAR=1900
DGENRE=
TTITLE0=Minha Oração
TTITLE1=Nem Deus, Nem Ninguém
TTITLE2=Tu Me Acostumasse
TTITLE3=E a Vida Continua
TTITLE4=Lembrança (Un Recuerdo)
TTITLE5=Sabor a Mim
TTITLE6=Sem Ti
TTITLE7=Meu Último Fracasso
TTITLE8=História de Um Amor 
TTITLE9=Ai de Quem
TTITLE10=Loucura...Loucura
TTITLE11=A Barca
TTITLE12=Ave Maria
TTITLE13=Que Será
TTITLE14=Fim de Comédia
TTITLE15=Tudo Acabado
TTITLE16=A Grande Verdade
TTITLE17=Calúnia
TTITLE18=Estrela do Mar
TTITLE19=Segredo
TTITLE20=Olhos Verdes
TTITLE21=Errei, Sim
TTITLE22=Kalú
TTITLE23=Esta Noite Serenou
TTITLE24=Nossas Vidas
TTITLE25=Rio de Janeiro
TTITLE26=Hino ao Amor
EXTD=
EXTT0=
EXTT1=
EXTT2=
EXTT3=
EXTT4=
EXTT5=
EXTT6=
EXTT7=
EXTT8=
EXTT9=
EXTT10=
EXTT11=
EXTT12=
EXTT13=
EXTT14=
EXTT15=
EXTT16=
EXTT17=
EXTT18=
EXTT19=
EXTT20=
EXTT21=
EXTT22=
EXTT23=
EXTT24=
EXTT25=
EXTT26=
PLAYORDER=
